<svg class="auckland" width="41px" height="64px" viewBox="0 0 41 64" version="1.1" xmlns="http://www.w3.org/2000/svg" xmlns:xlink="http://www.w3.org/1999/xlink">
    <g stroke="none" stroke-width="1" fill="none" fill-rule="evenodd">
        <g fill="#000000" fill-rule="nonzero">
            <g id="highres_513222959">
                <path d="M36.2261915,52.2554357 C36.2512084,51.5218268 36.3123724,50.8543896 36.289112,50.1899198 C36.2232437,48.3078029 36.3920663,46.4346184 36.4677256,44.5582224 C36.4896991,44.013118 36.3320762,43.7825647 35.7540972,43.7978247 C34.5228361,43.8303345 33.2901404,43.8077652 31.9425948,43.8077652 C32.8077853,45.5424185 32.4183066,47.30517 32.4176978,49.0396182 C32.4164196,52.6609093 32.4073068,56.2822047 32.4015939,59.9034958 C32.4009243,60.3292477 32.3825073,60.7565313 32.5219218,61.164178 C31.5901327,61.595018 31.3163994,61.3933613 31.2770959,60.3620674 C31.1109341,56.0031964 31.3646506,51.6466208 31.3416076,47.2882779 C31.3358337,46.1963937 31.1946367,45.210513 30.4961123,44.3512374 C29.8835861,43.5977388 29.8987944,42.6576381 29.9098725,41.7947537 C29.9348632,39.8491663 30.3025425,37.9141478 30.1665193,35.9589253 C30.1191289,35.2778428 30.0867818,34.5966249 29.8266743,33.9391414 C29.5796447,33.3146696 29.9149768,32.8744606 30.79048,32.6190907 C30.938303,33.1799349 31.2510268,33.6886283 31.2484704,34.3009471 C31.2399226,36.3453513 31.4070409,38.3958952 30.9982321,40.425707 C30.9382335,40.7236015 30.9558418,41.0461294 30.9873628,41.3520837 C31.0923085,42.3705831 31.4965347,42.7453797 32.4920963,42.7309751 C33.9389094,42.7100378 35.3852788,42.6555217 36.8321005,42.6392189 C37.2757434,42.6342179 37.4973387,42.4889231 37.4771999,42.0181332 C37.4305226,40.9266373 37.4799129,39.8381262 37.3693674,38.740726 C37.1881974,36.9422008 37.2954385,35.1360739 37.7906891,33.3789997 C37.9279644,32.8919635 38.1993065,32.4691703 38.7400256,32.0127893 C35.0118694,32.1370728 31.4350839,32.2563073 27.8870107,32.3745907 C27.7471528,32.2049899 27.7782913,32.0605372 27.8686633,31.9459849 C28.1658049,31.5693425 28.0175384,31.2900681 27.6965104,31.0373992 C27.6592765,31.0080924 27.6263381,30.973261 27.5916343,30.9407425 C26.6534628,30.0616076 26.6877665,29.6179818 27.8487507,28.969601 C28.570779,28.5663704 29.3462495,28.2520203 30.117242,27.947519 C30.5755627,27.766507 30.8079318,27.5283476 30.7695761,27.002339 C30.7263857,26.4100366 30.7869323,25.8107653 30.7595676,25.2165165 C30.6946733,23.8069242 31.1336641,22.4545861 31.2258883,21.0425785 C30.7325595,20.7383324 30.1257375,21.0999156 29.6211569,20.7455523 C29.7061637,20.1860301 30.087434,19.9043905 30.5720237,19.8792161 C31.0415442,19.8548208 31.2193926,19.6442401 31.3723113,19.2470685 C31.6769222,18.4559545 32.0344886,17.6853782 32.3699597,16.9068405 C31.9954285,16.6798805 31.5629594,16.9346832 31.2258883,16.6303195 C31.3575376,16.0867359 31.7531728,15.7893933 32.2262758,15.7579658 C33.4309548,15.6779414 34.6413728,15.6839393 35.8496082,15.6620932 C35.9099112,15.6610145 35.9713361,15.7221896 36.0882641,15.7839867 C35.6464037,16.3099276 35.9246935,16.8157234 36.1044028,17.3337487 C36.2510867,17.756555 36.3724319,18.1791606 36.4307698,18.6361264 C36.4932033,19.1252811 36.4165615,19.4686151 35.8439648,19.7994363 C36.6218267,19.8377215 37.2342747,19.8678661 37.8680439,19.8990602 C37.8391924,20.0683076 37.8504443,20.1739732 37.8132712,20.1955279 C36.5812363,20.9099407 37.3035514,21.8209352 37.5777544,22.6705843 C37.6615874,22.9303857 37.6750306,23.1816275 37.676274,23.4408332 C37.6814131,24.5129084 37.6930215,25.5852258 37.6757089,26.6570238 C37.6669264,27.2005179 37.8865392,27.4609803 38.4342494,27.4313113 C38.5760725,27.4236356 38.7196259,27.4274232 38.861223,27.4395762 C40.170378,27.551938 40.7632786,28.255232 40.6347508,29.5556809 C40.5880387,30.0283953 40.515275,30.4985176 40.455198,30.9636128 C40.5531003,31.2136546 40.8899454,31.0161435 40.9894303,31.2930528 C41.1120712,31.7439528 40.145535,32.2606275 39.2285544,32.1682123 C38.6786356,33.1538528 38.5834028,34.2573317 38.5041957,35.3641269 C38.3711115,37.2235654 38.6671575,39.0695114 38.6863397,40.9252453 C38.694409,41.7060435 38.4920655,42.390748 38.0371186,42.9867202 C37.7557593,43.3552855 37.69863,43.7321897 37.6633961,44.1711811 C37.1642848,50.3899489 37.4309922,56.6273454 37.1953886,62.8520609 C37.1873104,63.0655783 37.1712759,63.2808412 37.1336941,63.4907367 C37.0587826,63.9090791 36.7123292,64.0070796 36.3821709,63.9996125 C36.0237002,63.9906022 36.0431171,63.6490791 36.0432824,63.3962271 C36.0439345,62.3957105 36.0219262,61.3927765 36.0814294,60.395127 C36.2418086,57.7056934 36.1469845,55.0130263 36.2261915,52.2554357 M36.4716386,26.1085463 C36.4684908,25.370216 36.4873426,24.6309778 36.4569345,23.8937799 C36.4131789,22.8325879 35.9249283,21.8811852 35.3383842,21.0844462 C34.9953392,20.6184717 34.125488,20.9824374 33.4959622,20.9198353 C33.3079922,20.9011454 33.1144223,20.9358895 32.9271393,20.9140316 C32.40202,20.8527561 32.2010415,21.1328531 32.150634,21.6062483 C32.0574968,22.4809278 31.9039522,23.3527666 31.8718224,24.2293444 C31.8389187,25.1265277 31.7049738,26.0431602 32.0139325,26.9222165 C32.1019394,27.1725812 32.1666336,27.4576814 32.5733903,27.4464317 C33.6878886,27.4156019 34.8037345,27.4204805 35.9188416,27.4317258 C36.3605801,27.4361813 36.514916,27.2333025 36.4814731,26.8189487 C36.4661777,26.62948 36.4746733,26.4380735 36.4716386,26.1085463 M35.439582,31.0366399 C36.5991576,31.0078131 37.7586983,30.9774372 38.9183435,30.9517086 C39.1087569,30.9474845 39.2895182,30.9699578 39.4005507,30.7500212 C39.791299,29.976013 39.5189309,29.1776638 38.7401298,28.7514232 C38.4155454,28.5737757 38.0917783,28.4997494 37.7261774,28.501377 C35.8790685,28.5096157 34.0314031,28.5291128 32.1849202,28.4930335 C30.9707023,28.4693122 29.8502824,28.7780333 28.7615488,29.2656803 C28.598135,29.3388776 28.3884698,29.3765758 28.3595312,29.6207267 C28.5815439,30.0156139 29.1103327,30.1780756 29.2142088,30.6371401 C29.3641449,31.2998122 29.7944835,31.3244935 30.3382808,31.2912331 C31.9914026,31.1901298 33.6464285,31.1202927 35.439582,31.0366399 M34.1296531,16.7830784 C33.4319982,16.6573659 33.1139441,17.0558749 32.8610972,17.635996 C32.54713,18.3563456 32.5629645,19.2362421 31.6413316,19.852161 C32.6825097,19.852161 33.5042402,19.8524861 34.3259708,19.8520716 C35.2159954,19.8516243 35.3475318,19.6621271 35.1413709,18.7908271 C34.989122,18.1473643 34.5284447,17.553227 34.8821242,16.8145628 C34.6192515,16.8009458 34.4325163,16.7912757 34.1296531,16.7830784 Z" id="Shape"></path>
                <path d="M24.296069,61.9888535 C23.7788278,62.1832841 23.3676451,62.2567606 22.8549472,62.0017702 C22.4594078,61.8050532 21.9263624,61.8523823 21.4542289,61.8506018 C16.5871141,61.8322655 11.7199558,61.8260602 6.85280625,61.8163902 C5.81595412,61.8143304 5.74629909,61.7387158 5.72499079,60.6675985 C5.68234385,58.5244736 5.73959048,56.3799742 5.5949805,54.2377439 C5.54988585,53.569818 5.45751822,52.9121032 5.35787682,52.2544582 C5.26825268,51.6628976 5.20114537,51.0787421 5.41150181,50.4576959 C4.25867819,50.3247199 3.14438438,50.4878666 2.04250752,50.2748118 C0.833480844,50.0410424 -0.0436136962,49.2461798 0.00167670915,48.2905224 C0.05878842,47.0853208 1.21528155,45.901689 2.37317882,45.8726003 C2.81317825,45.861547 3.25367774,45.8707981 3.77027546,45.8707981 C3.58696203,46.5471896 3.23439988,46.8044579 2.67752031,46.8043008 C2.01433418,46.8041175 1.2994884,46.6906649 1.09103631,47.6041248 C0.873488732,48.5574607 1.64836366,48.7396902 2.22018213,49.0821253 C2.49408934,49.2461579 2.79475263,49.2966464 3.10755905,49.3045927 C4.76826314,49.3467464 6.42883687,49.3953322 8.08973671,49.4271831 C8.32238389,49.4316428 8.56250488,49.3773754 8.78884364,49.3134641 C9.33587122,49.1590012 9.44334287,48.8126561 9.16405313,48.3340813 C8.9674051,47.9971182 8.69163272,47.7560133 8.33279678,47.583371 C7.41785514,47.1431665 6.51406977,46.6807679 5.47646998,46.607095 C5.64793162,45.8384803 6.06876189,45.4968742 6.74138244,45.6451495 C7.81595544,45.8820216 8.83915998,46.3079525 9.6985418,46.9944242 C10.7943623,47.8697626 10.4463088,49.5863501 9.11830198,50.1238572 C8.44219884,50.3975025 7.73599622,50.456138 7.02078088,50.4057718 C6.49699188,50.3688852 6.25247538,50.5615833 6.34716036,51.1030569 C6.85912778,54.0308201 6.78019033,56.9883962 6.75796469,59.9400159 C6.75279957,60.625807 6.99271625,60.774235 7.62348553,60.7724545 C12.4905961,60.7587132 17.3578804,60.7641504 22.2248692,60.798122 C22.9225676,60.8029919 23.1000333,60.5682842 23.1129678,59.8942971 C23.1751927,56.6524062 22.8477343,53.4259021 22.7856139,50.1898325 C22.7783445,49.8109515 22.7686273,49.4310363 22.9420715,48.9534083 C22.1614748,48.9534083 21.4372293,48.9532206 20.7129793,48.9534562 C19.7157917,48.9537836 18.7181214,48.9354952 17.7215859,48.9614157 C17.0246049,48.9795383 16.4167525,48.7724269 15.8517947,48.3860533 C14.9966345,47.8012129 14.8544289,47.261441 15.310928,46.3113125 C15.3614573,46.2061378 15.404252,46.0972234 15.4581118,45.9727785 C15.0941673,45.6628838 14.6733849,45.6570799 14.2496807,45.6538944 C12.4699879,45.6405283 10.6919557,45.6623426 8.91596712,45.8052505 C8.65185093,45.8264975 8.19107802,45.9778797 8.17640866,45.5175976 C8.16388286,45.1245475 8.53698812,44.9372867 8.91766704,44.8853277 C11.0113794,44.5995207 13.1176221,44.5553772 15.2236732,44.6314633 C15.7273409,44.64966 16.2632252,44.8119473 16.7111723,45.0478376 C17.1578369,45.2830558 17.5935711,45.3327455 18.0647786,45.3318729 C18.2340837,45.331563 18.414493,45.3433014 18.4773177,45.538033 C18.5365774,45.7217199 18.4150842,45.8510042 18.2970606,45.9733371 C18.0421139,46.2375611 17.7186945,46.2706686 17.3771191,46.2625565 C16.9129116,46.2515338 16.3359541,46.3571535 16.229013,46.7571899 C16.0939724,47.2623049 16.7055855,47.4375699 17.0834037,47.6597232 C17.3974188,47.8443702 17.75212,47.898127 18.1129863,47.898572 C20.7007883,47.9017707 23.2886468,47.9134262 25.8763487,47.8980135 C26.4010508,47.8948891 27.1076271,47.9790436 27.1674694,47.2257326 C27.2236857,46.5179003 26.508005,46.3738273 26.0217022,46.2758485 C24.3308944,45.935185 22.640917,45.5321244 20.8902235,45.6426141 C20.5931776,45.6613651 20.2732103,45.7285143 19.9318566,45.4985282 C20.0811013,44.8870166 20.5060967,44.636486 21.0959278,44.6245337 C22.3985872,44.5981244 23.6989251,44.5733035 24.9801764,44.9135917 C25.7041524,45.1058708 26.4632668,45.07954 27.1807561,45.4036475 C28.3345057,45.9248386 28.6360906,47.0308614 27.7658046,47.9739381 C27.1148792,48.6793092 26.2654449,48.9362938 25.3257517,48.9538708 C23.7254594,48.983806 23.77808,48.6599298 23.8537522,50.5063907 C23.9873146,53.7651691 24.2313573,57.0199329 24.1594719,60.2847202 C24.1491938,60.7514388 24.3377899,60.9297758 24.7941455,60.901848 C25.0475836,60.8863436 25.3162389,60.8625351 25.6074414,61.0223044 C25.4166281,61.6601423 25.0586529,62.0371339 24.296069,61.9888535 Z" id="Path"></path>
                <path d="M14.8427813,55.1723898 C16.3079026,55.1722633 17.7017863,55.1722633 19.1996416,55.1722633 C18.8961133,56.5591577 18.3360641,57.6431699 17.2155444,58.348506 C15.6886026,59.3096704 13.9772256,59.1006738 12.2968262,59.0428239 C12.1075998,59.0363131 11.9192777,59.0043663 11.7304469,58.9850961 C10.1170722,58.8204698 9.23483422,57.5201868 9.72989769,55.9756831 C9.89129435,55.4721695 10.2604604,55.1572171 10.8544001,55.1653643 C12.159903,55.1832686 13.4658059,55.1719185 14.8427813,55.1723898 M13.0624405,56.2523481 C12.5653207,56.252527 12.0671181,56.2330516 11.5715067,56.2605955 C11.2942647,56.2760039 10.8964079,56.0965978 10.7910971,56.5298072 C10.7013947,56.8987956 10.8640478,57.2325689 11.144268,57.4866078 C11.4340531,57.7493176 11.7762415,57.9032178 12.1737985,57.905583 C13.4045289,57.9129097 14.6365508,57.9555519 15.865625,57.9130579 C16.9645975,57.8750543 17.6496004,57.2814994 17.8962734,56.2524572 C16.3248457,56.2524572 14.7648004,56.2524572 13.0624405,56.2523481 Z" id="Shape"></path>
                <path d="M32.9366087,1.88649916 C32.9668864,1.26001783 32.8375673,0.688425649 33.090562,0 C33.650785,0.563547659 34.0705153,1.05528135 34.1317661,1.78412277 C34.3115275,3.92336498 34.1328531,6.05385459 34.0323944,8.18986878 C33.9363789,10.2313622 33.9676131,12.2793862 33.9675608,14.3245408 C33.9675521,14.7920318 33.8589718,15.1750497 33.4652411,15.4305528 C33.1557866,15.6313586 32.9166874,15.5881445 32.891027,15.1576079 C32.8783056,14.944254 32.8855837,14.7296043 32.8864358,14.5155501 C32.9031138,10.3293434 32.9201656,6.1431366 32.9366087,1.88649916 Z" id="Path"></path>
                <path d="M19.4360237,36.4621553 C19.1740509,37.7492424 18.2206796,38.2114184 17.17128,38.5092344 C16.2365911,38.7745013 15.9607795,39.1696198 16.2121089,40.0997275 C16.5041419,41.1804668 17.5559632,42.0620281 18.6842612,42.1584141 C19.0397146,42.1887769 19.3906724,42.2090901 19.6485322,42.495975 C19.381903,43.277982 18.9838418,43.4308827 17.7994711,43.2191065 C16.3801706,42.9653292 15.1700571,41.5351946 15.0724199,40.1208524 C14.992639,38.9651921 15.4807461,38.4999484 16.8339045,37.7385077 C17.1179246,37.5786816 17.4586914,37.522132 17.770363,37.409779 C18.4394185,37.1685781 18.5235342,36.830428 18.1066385,36.223974 C17.7252902,35.6692346 17.2400221,35.2267696 16.711181,34.8251885 C16.4130961,34.5988417 16.1132198,34.3770332 16.4530256,33.9638052 C16.7551801,33.5963571 17.0694344,33.5029733 17.4804258,33.8444528 C18.3299817,34.5503258 19.2979395,35.1540568 19.4360237,36.4621553 Z" id="Path"></path>
                <path d="M9.09352847,41.8291268 C9.50165472,42.3849877 8.98885687,42.578515 8.74295773,42.8364639 C8.44743777,43.1464721 8.24911591,42.8519333 8.04842881,42.6491201 C7.96662181,42.5664362 7.86383703,42.4933699 7.75699579,42.4486808 C6.72042205,42.0150218 6.48425309,41.2157432 6.54287794,40.1514944 C6.58827263,39.3274516 6.89380969,38.7591148 7.53610922,38.3054568 C8.36663515,37.7188535 8.97416586,37.0147477 8.84901625,35.8842444 C8.80541293,35.4903696 8.62362104,35.1591623 8.48597611,34.8180538 C8.28077611,34.3095263 8.56592222,34.0512805 8.86692899,33.7897664 C9.03919486,33.6400948 9.27827683,33.6176783 9.4112131,33.8686323 C10.0344305,35.0451162 10.2349653,36.4431425 9.16131406,37.6845239 C8.80918231,38.0916776 8.44825951,38.5018771 8.00430364,38.8303615 C7.33274818,39.3272596 7.40378158,40.7049465 8.10401029,41.1733583 C8.41869927,41.3838647 8.73783605,41.5876816 9.09352847,41.8291268 Z" id="Path"></path>
                <path d="M10.8624174,39.450138 C11.1350551,38.4480199 11.7474204,37.790855 12.5219694,37.2330043 C13.1735121,36.7637546 13.2427497,36.3319372 12.9030787,35.322427 C12.8090198,35.0428951 12.6663532,34.7893404 12.9188131,34.5351966 C13.0823706,34.3705443 13.2211328,34.1450091 13.5006531,34.1799016 C13.7776473,34.2144755 13.8933838,34.4454914 13.9727518,34.6636737 C14.4405419,35.9496349 14.1056664,36.9790088 13.0791619,37.7464148 C11.7722025,38.7234936 11.4809565,40.1370854 12.4224845,41.493054 C12.5716466,41.7078631 12.7050872,41.9414058 12.8883529,42.1230155 C13.264271,42.4955255 13.1247262,42.7832787 12.8006374,43.0831894 C12.4313016,43.4249742 12.1989283,43.2378837 11.9177603,42.9335525 C11.0148445,41.9562642 10.7046989,40.8074638 10.8624174,39.450138 Z" id="Path"></path>
                <path d="M13.4415413,53.2131614 C14.4323508,53.4337175 15.262555,53.4285902 15.7763616,52.3835242 C15.9537274,52.0227571 16.3026158,51.632574 16.8614953,51.8423735 C16.3704491,53.6051031 14.4648196,54.7687708 12.8047155,54.3548402 C12.3392862,54.2387955 12.1484468,53.9290317 12.1213691,53.4788035 C12.0481924,52.262086 12.204176,51.0632728 12.4298929,49.8740206 C12.5192954,49.40296 12.8381323,49.102133 13.2842316,48.9449557 C13.5506433,49.2129543 13.4083029,49.4618617 13.3884162,49.7122963 C13.3076571,50.7293425 13.2480714,51.7481168 13.1852554,52.7665334 C13.1745947,52.9394506 13.2187851,53.0979981 13.4415413,53.2131614 Z" id="Path"></path>
            </g>
        </g>
    </g>
</svg>