<svg class="cocoaheads" width="65px" height="58px" viewBox="0 0 65 58" version="1.1" xmlns="http://www.w3.org/2000/svg" xmlns:xlink="http://www.w3.org/1999/xlink">
    <g stroke="none" stroke-width="1" fill="none" fill-rule="evenodd">
        <g id="Group" fill="#231F20" fill-rule="nonzero">
            <path d="M44.2041222,56.8868496 C43.7619204,52.6696026 43.7573798,48.3681052 44.1945365,44.1528465 C44.5570259,40.6558294 45.0776787,37.1680079 45.6545843,33.6990744 C45.9176855,34.1551206 46.1807867,34.6116638 46.4438879,35.0682071 C42.1870969,33.6284928 37.6556011,32.7308149 33.1954932,32.216365 C26.6497469,31.4610928 19.9352425,31.8264268 13.5610291,33.5154132 C12.4649842,33.8056923 11.3550654,34.121321 10.3056876,34.5530116 C10.5685366,34.0964683 10.8316378,33.639925 11.094739,33.1836303 C12.3597942,40.2465062 12.7573469,47.5735658 11.05009,54.601151 C10.7110602,55.9971246 8.53208776,55.4048858 8.87111751,54.0094117 C10.4802476,47.3856822 10.1084247,40.4346408 8.91551426,33.775372 C8.79771151,33.1167767 9.09335353,32.6574996 9.7048179,32.4059907 C13.1427915,30.9921232 17.0093451,30.3727951 20.6814106,29.9575072 C27.8625854,29.1450739 35.1075806,29.8968667 42.1131864,31.5550359 C43.7699925,31.9472107 45.4313392,32.3756705 47.0445053,32.9214348 C47.6746365,33.1344221 47.9382422,33.6617954 47.833809,34.2905675 C47.2889397,37.5641592 46.803098,40.853408 46.4542303,44.1528465 C46.0087493,48.3653739 46.0218665,52.6718394 46.4640682,56.8868496 C46.5273841,57.4917632 45.9017935,58 45.3339691,58 C44.6702881,58 44.267438,57.4902721 44.2041222,56.8868496 L44.2041222,56.8868496 Z" id="Path" transform="translate(28.345729, 43.814225) scale(-1, 1) rotate(-180.000000) translate(-28.345729, -43.814225) "></path>
            <path d="M38.5109953,50.5351557 C31.8176803,50.7824421 25.1051939,50.8408434 18.4088518,50.6748276 C17.7524862,50.6584249 17.3329873,50.1780231 17.2790049,49.5614287 C17.2025718,48.6908402 17.3940328,47.7439541 17.6901794,46.928787 C18.4048157,44.962445 19.9153144,43.6124488 21.8501047,42.8263593 C23.1696468,42.290039 24.6233882,42.1734801 26.0339942,42.1091117 C27.3325992,42.0499624 28.6347358,42.0325655 29.9308183,42.1441539 C32.5658665,42.3710587 35.044517,43.2282267 36.9558477,45.084223 C38.0518925,46.1489107 38.8659171,47.4830012 39.4864626,48.8600868 C39.7364466,49.4145495 39.6559775,50.051523 39.08109,50.3830575 C38.5947437,50.6638925 37.7852598,50.5386351 37.5352758,49.9836753 C36.4538617,47.5836544 34.810425,45.613833 32.2217916,44.8108438 C29.8435383,44.0729685 27.0969937,44.1756099 24.6317126,44.4273673 C23.4794151,44.5451689 22.4083434,44.8960884 21.4654169,45.5124342 C21.2240096,45.6704971 20.9051602,45.9540659 20.6135542,46.2764048 C20.5971577,46.2945473 20.3855163,46.5547545 20.5345986,46.3621465 C20.4750666,46.4391897 20.4198229,46.5189667 20.3645792,46.5989923 C20.2412269,46.7771858 20.1340188,46.9655689 20.0333694,47.1566858 C19.9919997,47.2349717 19.954666,47.3149972 19.9173324,47.3950228 C19.7932233,47.6606977 20.0041079,47.1768165 19.8986656,47.4432369 C19.8391336,47.5930985 19.7894395,47.7461908 19.7425202,47.9005258 C19.6542312,48.1917989 19.5929334,48.4912734 19.5490412,48.7919905 C19.6070596,48.3958392 19.553834,48.7984522 19.5462664,48.8926438 C19.5386987,48.9850956 19.5346627,49.077796 19.5318879,49.170745 C19.5283563,49.2897892 19.5291131,49.4098275 19.5361762,49.5288717 C19.5369329,49.5395584 19.5376897,49.5504935 19.5386987,49.5614287 C19.1618308,49.1903786 18.7854674,48.8193284 18.4088518,48.4482783 C25.1051939,48.6145426 31.8176803,48.5561388 38.5109953,48.3086064 C39.9687728,48.2546761 39.9632232,50.4812254 38.5109953,50.5351557 L38.5109953,50.5351557 Z" id="Path" transform="translate(28.441310, 46.415626) scale(-1, 1) rotate(-180.000000) translate(-28.441310, -46.415626) "></path>
            <path d="M24.3206831,38.9735525 C23.4685681,37.7995131 23.1007814,36.2022329 22.8361667,34.807999 C22.5639843,33.3740033 22.2315132,31.437733 23.0092131,30.0949441 C23.9021932,28.5530829 25.7691272,28.3264267 27.3802753,28.5781841 C29.0209371,28.834415 30.6822838,29.7273708 31.8615725,30.8673621 C32.9031304,31.8741431 31.3043428,33.4473162 30.2637939,32.4415317 C29.3945257,31.601261 28.2561021,31.0554967 27.0758043,30.7826146 C26.5697823,30.6655586 26.0072552,30.6618307 25.584477,30.772425 C25.2507446,30.8601548 24.9884002,31.0855684 24.9132284,31.3425449 C24.799714,31.7309943 24.8113177,32.2494207 24.8405792,32.8076113 C24.8736245,33.4433422 24.9795713,34.0696267 25.110239,34.6924367 C25.3440787,35.8075728 25.6205494,36.9525346 26.2718699,37.8497154 C26.6308278,38.3442832 26.361168,39.0873776 25.8664973,39.3729346 C25.2984207,39.7007411 24.6781274,39.4661321 24.3206831,38.9735525 L24.3206831,38.9735525 Z" id="Path" transform="translate(27.363461, 34.007616) scale(-1, 1) rotate(-180.000000) translate(-27.363461, -34.007616) "></path>
            <path d="M6.49790925,33.142987 C3.93601479,33.2115803 0.967234177,31.2415104 0.159768229,28.8395013 C-0.348776398,27.3264717 0.414797305,25.9024146 1.6286449,24.9918134 C3.57453441,23.5319684 6.35740362,23.2113692 8.70462968,22.9700499 C10.8863769,22.7451334 13.0928451,23.045602 15.1832763,23.6897828 C17.1112558,24.2840098 19.5381942,25.3951719 20.0303423,27.5429383 C20.5913558,29.9926645 18.4565279,31.8886735 16.3613038,32.6692954 C14.7579756,33.2667532 12.9084472,33.3935018 11.2064876,33.297322 C11.1318204,33.293097 11.0571531,33.2881265 10.9827381,33.2814163 C10.3695079,33.2250008 9.85289116,32.8176658 9.85289116,32.1682659 C9.85289116,31.6041106 10.3684989,30.9984514 10.9827381,31.054867 C12.3254876,31.1783847 13.6422549,31.0735065 14.8076697,30.8046007 C15.7788487,30.5806783 16.5820263,30.2491439 17.2209864,29.6166438 C17.4611325,29.3790525 17.685891,28.995079 17.7936036,28.6511182 C17.8261444,28.5474826 17.8460725,28.4406162 17.8654961,28.3339983 C17.8213516,28.5758147 17.8536401,28.2599374 17.8538924,28.2246467 C17.8538924,28.1764325 17.8036938,27.8727331 17.8513699,28.1346801 C17.8284147,28.0091741 17.7857837,27.8878932 17.741387,27.7686005 C17.8150452,27.9661791 17.577674,27.5240503 17.5168807,27.4400484 C17.6543593,27.6296741 17.4406999,27.3684727 17.4253124,27.35207 C17.3519064,27.2735356 17.2716895,27.2014629 17.1919772,27.1293902 C16.9538491,26.9136691 16.4728002,26.6241357 16.03413,26.4026986 C15.1497265,25.9560964 14.0511591,25.6514028 13.0012768,25.4269833 C10.8253314,24.9622387 8.54167342,25.0952004 6.22219532,25.5701346 C5.39808059,25.7388842 4.36837862,26.0383586 3.77406754,26.3144716 C3.47237142,26.4548891 3.18429704,26.6216504 2.91110565,26.809785 C2.80818591,26.8845915 2.81474452,26.8791239 2.93027698,26.7928852 C2.86544763,26.8438332 2.80389758,26.898509 2.74259979,26.9534334 C2.64749993,27.038678 2.56021995,27.1318754 2.47647153,27.2278067 C2.39953397,27.3210041 2.41416472,27.3018676 2.52036377,27.1706456 C2.47975084,27.2253214 2.44342622,27.2832281 2.40735386,27.3411348 C2.35917329,27.4184266 2.2156406,27.7631329 2.35160566,27.4216574 C2.31376752,27.5165945 2.28778533,27.6155081 2.26508244,27.7146702 C2.24313632,27.8324718 2.24692014,27.7929561 2.27592938,27.596123 C2.26810949,27.6547753 2.2653347,27.7144217 2.26281216,27.7738195 C2.25852383,27.8727331 2.26558695,27.9718952 2.27542487,28.0705602 C2.23708222,27.6823617 2.27895643,28.0342753 2.30367735,28.1297095 C2.32965954,28.2296172 2.36522739,28.3270396 2.40230877,28.4234679 C2.26760499,28.0750337 2.43737212,28.4778952 2.48429141,28.5621457 C2.53827383,28.6593196 2.59931936,28.752517 2.66162617,28.8447204 C2.68735611,28.8822479 2.71359055,28.9192784 2.74058176,28.9558118 C2.88537572,29.1561242 2.57661648,28.7557479 2.73477991,28.9491015 C2.88613248,29.1342538 3.05438608,29.3054886 3.22844154,29.4697647 C3.31799181,29.5542637 3.41157814,29.6345378 3.50592124,29.7135692 C3.54401164,29.7453806 3.5828588,29.7766949 3.62170596,29.8075122 C3.82628418,29.9720368 3.41939803,29.6588934 3.63179613,29.8152166 C3.83435631,29.9638354 4.04675442,30.0990339 4.26344084,30.2267765 C4.47810924,30.353028 4.70059751,30.465362 4.92712185,30.5692461 C5.2247819,30.7056872 4.75886825,30.5086056 5.06132113,30.6246675 C5.17206076,30.666917 5.28481842,30.7044445 5.39757608,30.7404809 C5.61325349,30.8090742 5.83397599,30.8612648 6.05671652,30.9012776 C6.3773317,30.9589357 5.81909298,30.8823895 6.13617661,30.9089819 C6.2565019,30.9191715 6.3773317,30.9199171 6.49790925,30.9166862 C7.95619124,30.8776675 7.95215517,33.1042169 6.49790925,33.142987 L6.49790925,33.142987 Z" id="Path" transform="translate(10.060629, 28.111133) scale(-1, 1) rotate(-180.000000) translate(-10.060629, -28.111133) "></path>
            <path d="M34.5796124,29.9945663 C32.992933,29.6257529 31.2528829,28.9296301 30.3722633,27.4911584 C29.5622748,26.1685001 30.0433237,24.6311149 31.0924492,23.6019665 C32.5643529,22.1577787 34.8116863,21.542427 36.7886031,21.168146 C40.0015659,20.5600016 43.4259177,20.46581 46.6709168,20.8567423 C48.6354731,21.0933395 50.9415817,21.5225449 52.2061324,23.1789743 C53.0673285,24.3075334 52.8367681,25.7986926 52.138276,26.939181 C51.4145585,28.1211732 50.2511617,29.06458 49.0436205,29.7365958 C46.5536185,31.1221312 43.4524044,31.6905115 40.6180753,31.7248081 C39.8297807,31.7342521 39.0268553,31.6920026 38.2489031,31.5577983 C37.6414748,31.4531686 37.3084992,30.7307019 37.4598517,30.1886655 C37.634664,29.5623786 38.2436058,29.3066448 38.8495206,29.4112745 C38.8845839,29.4172391 38.9196473,29.4222097 38.9544583,29.4271802 C38.7990697,29.4048128 38.7529072,29.4035702 39.0271076,29.4316537 C39.4667868,29.476637 39.9087363,29.4935368 40.3504335,29.4985073 C41.7751657,29.5149101 43.1832491,29.3334857 44.5671161,29.0054307 C45.7597743,28.722856 46.9700903,28.3453442 48.0373782,27.7384423 C48.3095605,27.5838588 48.5706437,27.4111329 48.8241593,27.2287144 C49.045134,27.0699059 48.631437,27.3805641 48.8458531,27.2140513 C48.9076554,27.1660857 48.9681965,27.1166289 49.0284852,27.0671721 C49.1679819,26.9526014 49.3019289,26.831569 49.4328489,26.7078027 C49.543084,26.6039186 49.6480218,26.495064 49.7509415,26.3844697 C49.8084555,26.3228351 50.116458,25.9492997 49.9055734,26.2182054 C50.0899713,25.9833479 50.249396,25.7303478 50.3828385,25.4641759 C50.5109836,25.2081936 50.3205317,25.6642398 50.4373254,25.3170482 C50.4759203,25.2014833 50.5031638,25.0826877 50.5246054,24.9631464 C50.4539742,25.3503507 50.515272,24.9594185 50.5140107,24.8500668 C50.5127494,24.7673075 50.4822267,24.5495982 50.533182,24.9156778 C50.5223351,24.8388831 50.5031638,24.7635796 50.4827312,24.6890216 C50.3881358,24.3455579 50.5654706,24.8125393 50.4330371,24.5684862 C50.4030188,24.5130648 50.367451,24.4603772 50.3326399,24.4079381 C50.2007109,24.2116021 50.5039205,24.6092446 50.3450003,24.4245894 C50.250405,24.3147406 50.1416834,24.2178153 50.0306915,24.1248664 C50.2607474,24.3174744 50.0538989,24.1437544 50.003448,24.1089607 C49.9083482,24.0433496 49.8082032,23.9851944 49.7080583,23.9277848 C49.2582889,23.6705598 49.2189372,23.67727 48.7300684,23.522438 C48.1680459,23.3442445 47.5863475,23.2286796 47.0049014,23.1329969 C44.2205187,22.6754595 41.1813591,22.7656747 38.3939493,23.1513879 C37.2789854,23.3054743 36.1728504,23.540829 35.10304,23.887772 C34.3583854,24.1290913 33.7045423,24.4143998 32.9863744,24.9181631 C32.8837069,24.9934666 32.8890042,24.9887446 33.0027709,24.9039971 C32.9361758,24.9556906 32.8726077,25.011112 32.8090396,25.0665334 C32.6909846,25.1694234 32.5820107,25.2817574 32.4778297,25.3983164 C32.3998832,25.4910168 32.4127481,25.4723773 32.5164246,25.3416523 C32.4737937,25.3963282 32.4351988,25.4539863 32.3966038,25.5116445 C32.3418647,25.5936582 32.1587281,25.9940345 32.3022607,25.6463459 C32.2639181,25.7392948 32.2366746,25.8362201 32.2137195,25.9336426 C32.1612506,26.1525944 32.2412152,25.6458488 32.2187646,25.867286 C32.2129627,25.9241985 32.2129627,25.9816082 32.213215,26.0387693 C32.2134672,26.3141367 32.1415748,25.7852722 32.2275935,26.138677 C32.2414675,26.1955895 32.260891,26.2507624 32.2803146,26.3059353 C32.3544774,26.5169344 32.1620074,26.0554206 32.2634136,26.2594609 C32.3100806,26.3531554 32.3680991,26.4411338 32.4276311,26.5273725 C32.5625872,26.7229629 32.2576117,26.3253204 32.4162797,26.5107212 C32.4616855,26.5639059 32.510875,26.6133627 32.5600646,26.6633165 C32.6188399,26.7227143 32.9841041,27.0199521 32.7315975,26.8295807 C32.8637788,26.9289914 33.0042844,27.0172183 33.1463036,27.1022144 C33.274701,27.1787605 33.4078913,27.2471053 33.541586,27.3134619 C33.626848,27.3557114 33.7138757,27.3942331 33.8006512,27.4330032 C33.5645412,27.3278765 33.8725436,27.4595955 33.9007961,27.4705307 C34.3162589,27.6290906 34.7471092,27.7471408 35.1799776,27.847794 C36.5981511,28.1773402 35.9967769,30.323864 34.5796124,29.9945663 L34.5796124,29.9945663 Z" id="Path" transform="translate(41.363794, 26.174198) scale(-1, 1) rotate(-180.000000) translate(-41.363794, -26.174198) "></path>
            <path d="M30.9398354,22.8682477 C28.2561021,23.1712016 25.5105665,23.1838764 22.8197701,22.9964874 C21.3680468,22.8953371 19.9163234,22.7656063 18.4754469,22.561566 C18.1740031,22.5188194 17.8402707,22.4914815 17.550935,22.3878459 C16.1925457,21.901728 16.7787847,19.7499852 18.1518047,20.2410736 C18.4156627,20.3355137 18.7178633,20.3613605 18.9928205,20.4026159 C19.0811095,20.4157878 19.1696507,20.4279656 19.2579397,20.4401434 C18.9844961,20.4026159 19.3608595,20.4520726 19.3850759,20.455055 C19.7097271,20.4948192 20.0351351,20.5288673 20.3605432,20.5619214 C21.2608387,20.6531306 22.1631522,20.7244577 23.0657181,20.787335 C25.671757,20.9690079 28.3413641,20.9352082 30.9398354,20.6419469 C31.5530655,20.572608 32.0696823,21.2006346 32.0696823,21.7550973 C32.0696823,22.4141897 31.551552,22.7991573 30.9398354,22.8682477 L30.9398354,22.8682477 Z" id="Path" transform="translate(24.424898, 21.644395) scale(-1, 1) rotate(-180.000000) translate(-24.424898, -21.644395) "></path>
            <path d="M34.3091958,15.5655608 C35.6196568,15.25366 36.1365258,14.3997228 36.3519509,13.1496342 C36.3206714,13.3315557 36.37087,12.9165163 36.3691042,12.9386352 C36.382726,12.768146 36.383735,12.5969112 36.3832305,12.4261735 C36.3819692,12.0553719 36.3580051,11.8717108 36.3143651,11.6279062 C36.2621484,11.3368816 36.1809225,11.0515731 36.0815344,10.7729749 C36.0318403,10.647469 36.0328493,10.6464749 36.0848137,10.7699926 C36.0189753,10.6246045 35.9579298,10.4772283 35.9024338,10.3278638 C35.8323071,10.1474336 35.7556218,9.97023415 35.6766662,9.79328325 C35.0344268,8.35356897 34.1908885,6.98543034 34.0559325,5.38665907 C33.8992826,3.52743198 35.2430411,1.93437682 36.5396281,0.761083 C37.636682,-0.23178055 39.2775961,1.37668325 38.1762539,2.3732747 C37.5710959,2.92077868 36.8592343,3.58086519 36.5499706,4.31625524 C36.4808529,4.48053128 36.4344381,4.6530087 36.3925639,4.82573465 C36.3564915,4.97460205 36.3706178,4.9094881 36.3635546,5.14210895 C36.3527077,5.49700485 36.3804557,5.55466301 36.4866547,5.93863653 C36.8917751,7.40618578 37.8382332,8.83471636 38.3480391,10.2647381 C39.3931285,13.1951146 38.2292273,16.9774401 34.9246962,17.7642751 C33.4744864,18.109727 32.8589859,15.9110127 34.3091958,15.5655608 L34.3091958,15.5655608 Z" id="Path" transform="translate(36.100733, 9.125127) scale(-1, 1) rotate(-180.000000) translate(-36.100733, -9.125127) "></path>
            <path d="M22.9330323,15.1164234 C24.243241,14.8045226 24.7603623,13.9505854 24.9757875,12.7002483 C24.9445079,12.8824183 24.9947065,12.467379 24.9929408,12.4892493 C25.0065625,12.3190086 25.0075715,12.1477738 25.007067,11.9770361 C25.0058057,11.6062345 24.9820938,11.4225734 24.9382016,11.1785203 C24.8862372,10.8874957 24.8047591,10.6021872 24.7053709,10.3238375 C24.6556768,10.1980831 24.6569381,10.197089 24.7086502,10.3206067 C24.6428118,10.1752186 24.5820185,10.0278424 24.5262703,9.87847794 C24.4561436,9.69804766 24.3794583,9.52084824 24.300755,9.34414586 C23.6587679,7.90418306 22.8147251,6.53629295 22.6800213,4.93752168 C22.5231191,3.07829459 23.8671299,1.48499091 25.1639692,0.311697087 C26.2607708,-0.680917937 27.9016848,0.92729734 26.8003427,1.92388879 C26.1951846,2.4716413 25.4830708,3.13147927 25.1738071,3.86711785 C25.1046894,4.03164242 25.0580224,4.20411985 25.0164004,4.37684579 C24.9805803,4.52546467 24.9944543,4.46059924 24.9873912,4.69322009 C24.9765442,5.04811599 25.0045444,5.10577415 25.1104912,5.48974767 C25.5158639,6.95704839 26.4620697,8.38557898 26.9718756,9.81535219 C28.0167128,12.7459772 26.8530638,16.5280542 23.5482805,17.3151378 C22.0980706,17.6603411 21.4828225,15.4616268 22.9330323,15.1164234 L22.9330323,15.1164234 Z" id="Path" transform="translate(24.724471, 8.675890) scale(-1, 1) rotate(-180.000000) translate(-24.724471, -8.675890) "></path>
            <path d="M12.2422437,15.2065075 C13.5524524,14.8946067 14.0695737,14.0406695 14.2849989,12.790581 C14.2534671,12.9722539 14.3039179,12.5572145 14.3021521,12.5793334 C14.3157739,12.4088442 14.3167829,12.2378579 14.3160261,12.0668717 C14.3150171,11.6963186 14.291053,11.5124089 14.247413,11.2686044 C14.1951963,10.9775798 14.1137182,10.6922713 14.0145823,10.4136731 C13.9648882,10.2881672 13.9658972,10.2869246 14.0178616,10.4104422 C13.9520232,10.2650542 13.8909777,10.1179265 13.8352295,9.96831352 C13.7651028,9.78788325 13.6886697,9.61093235 13.6097141,9.43398145 C12.9674748,7.99426717 12.1239364,6.62612853 11.9889804,5.02760579 C11.8323305,3.1683787 13.1763413,1.57507502 14.4731805,0.401532671 C15.5699821,-0.590833826 17.2108962,1.01738145 16.1095541,2.0139729 C15.5041438,2.56147688 14.7922822,3.22156338 14.4830185,3.95695343 C14.4136485,4.12147801 14.3672337,4.29395543 14.3256118,4.46668138 C14.2895394,4.61530025 14.3036657,4.55043482 14.2963503,4.78305567 C14.2855034,5.13795158 14.3135036,5.19560974 14.4194504,5.57958325 C14.824823,7.04688398 15.7712811,8.47541456 16.281087,9.9054363 C17.3259242,12.8358128 16.1625275,16.6183868 12.8574919,17.4052219 C11.407282,17.7504252 10.7920338,15.5517109 12.2422437,15.2065075 L12.2422437,15.2065075 Z" id="Path" transform="translate(14.033699, 8.765916) scale(-1, 1) rotate(-180.000000) translate(-14.033699, -8.765916) "></path>
            <path d="M55.7038902,38.758853 C57.7683393,39.9224543 59.961438,39.6826261 61.4840448,37.8959688 C62.9824352,36.1376435 63.1335355,33.010931 62.1484826,31.0716809 C61.1452673,29.0963919 59.0167457,27.9380072 56.986351,27.0631962 C54.9203884,26.1732227 52.7209834,25.6277069 50.6030565,24.8781483 C50.4955961,24.8398753 50.3886403,24.8006081 50.282189,24.7610948 C49.7060402,24.5478591 49.3183254,24.0170039 49.4928854,23.3917111 C49.6449947,22.8469409 50.3056487,22.4005897 50.8825542,22.6140715 C55.2167872,24.2188074 60.4929377,25.06678 63.4508714,28.9418084 C66.5601577,33.0149075 64.9119282,40.8584052 59.198621,41.6464829 C57.5652746,41.8718965 55.9869195,41.4834495 54.5631964,40.6812058 C53.2991502,39.9686802 54.436817,38.0448362 55.7038902,38.758853 L55.7038902,38.758853 Z" id="Path" transform="translate(57.225361, 32.134734) scale(-1, 1) rotate(-180.000000) translate(-57.225361, -32.134734) "></path>
        </g>
    </g>
</svg>